# xmcd
#
# Track frame offsets:
#	150
#	11811
#	33393
#	55449
#	77891
#	94024
#	109736
#	139453
#	159660
#	177946
#	195292
#
# Disc length: 2797 seconds
#
# Revision: 2512895034
# Processed by: cddbd v1.5.2PL0 Copyright (c) Steve Scherf et al.
# Submitted via: EZCDAudioConverter 8.1.0.1
#
DISCID=910aeb0b
DTITLE=Hank Williams Iii - Rebel Within
DYEAR=2010
DGENRE=Country
TTITLE0=Gettin' Drunk and Fallin' Down
TTITLE1=Rebel Within
TTITLE2=Lookin' For A Mountain
TTITLE3=Gone But Not Forgotten
TTITLE4=Drinkin' Ain't Hard To Do
TTITLE5=Moonshiner's Life
TTITLE6=#5
TTITLE7=Karmageddon
TTITLE8=Lost In Oklahoma
TTITLE9=Tore Up and Loud
TTITLE10=Drinkin' Over Momma
EXTD=
EXTT0=
EXTT1=
EXTT2=
EXTT3=
EXTT4=
EXTT5=
EXTT6=
EXTT7=
EXTT8=
EXTT9=
EXTT10=
PLAYORDER=
